<svg id="Dagelijks_bankieren" data-name="Dagelijks bankieren" xmlns="http://www.w3.org/2000/svg" viewBox="0 0 1302 1080"><defs><style>.cls-1,.cls-3,.cls-5{fill:#fff;}.cls-1,.cls-2,.cls-6{stroke:#009;}.cls-1,.cls-2,.cls-5,.cls-6,.cls-7,.cls-8{stroke-linecap:round;stroke-linejoin:round;stroke-width:4px;}.cls-2{fill:#009;}.cls-4,.cls-8{fill:#fd6400;}.cls-5{stroke:#fff;}.cls-6,.cls-7{fill:none;}.cls-7,.cls-8{stroke:#fd6400;}</style></defs><title>Dagelijks bankieren</title><path class="cls-1" d="M1031.07,673.37,732,875.84a47.89,47.89,0,0,1-42,5.78L506.32,789.68c-12.31-6-11.78-16.95-11.78-16.95l.11,17.89h0c.15,6.75,4.19,13.11,11.66,16.85,0,0,171.23,85.67,183.69,91.94s29.66,2.57,42-5.78l299.06-202.47a16.77,16.77,0,0,0,7.43-12.55l.08.07v-18A16.14,16.14,0,0,1,1031.07,673.37Z"/><path class="cls-2" d="M690,881.62,506.32,789.68c-13.74-6.83-15.89-22.4-4.17-30.33L801.21,556.88a47.89,47.89,0,0,1,42-5.78L1026.9,643c13.5,6.66,15.89,22.4,4.17,30.33L732,875.84C719.67,884.2,701.08,887.16,690,881.62Z"/><line class="cls-2" x1="699.19" y1="883.7" x2="699.19" y2="901.46"/><ellipse class="cls-3" cx="623.05" cy="809.94" rx="19.15" ry="11.87"/><polygon class="cls-3" points="746.06 837.86 557.75 744.81 815.28 571.16 901.11 613.57 1003.59 664.21 746.06 837.86"/><path class="cls-4" d="M292.89,299.94a128.31,128.31,0,0,1,234.89-7.64C594,400.67,633.37,564.68,638.46,586.66a51.9,51.9,0,0,1-96.76,37.19h0l-.7-1.34c-50.78-97.86-175.66-155.15-176.92-155.72h0A128.53,128.53,0,0,1,292.89,299.94Z"/><polygon class="cls-3" points="746.02 837.79 557.71 744.74 815.24 571.09 901.07 613.5 1003.55 664.14 746.02 837.79"/><polyline class="cls-1" points="820.93 648.98 836.84 637.94 872.34 655.53"/><polyline class="cls-1" points="700.19 729.84 673.01 747.63 708.51 765.21"/><path class="cls-2" d="M409,178.63a293,293,0,0,1-53.6,57.8,293.63,293.63,0,0,1-73.33,44.16l-20,8.35-40.66-22.52,23.13-9.66a276.12,276.12,0,0,0,69-41.57,276,276,0,0,0,54.11-59.73Z"/><path class="cls-5" d="M551.2,258.4l-6,8.05a276.36,276.36,0,0,1-117.51,91.23l-23.91,9.76L262,288.94l20-8.35a293.63,293.63,0,0,0,73.33-44.16,293,293,0,0,0,53.6-57.8Z"/><path class="cls-6" d="M410.77,287.35c-18.12-13-27.74-30.24-21.64-39.49,6.42-9.72,27.81-6.92,47.78,6.26s30.93,31.75,24.51,41.47"/><polyline class="cls-6" points="391.77 306.07 352.61 279.37 351.6 288.18"/><path class="cls-5" d="M731.75,492.56h0c-22.64,44.22-84.36,72.66-140.24,72.66a155.56,155.56,0,0,1-17.51-1l-17.45-2.87L617,698.94c71.48,7.59,130.89-13.17,176-67.58Z"/><path class="cls-1" d="M556.55,561.38,574,564.25a155.56,155.56,0,0,0,17.51,1c55.88,0,117.6-28.44,140.24-72.66L793,631.36c-39.75,48.73-95.51,75.27-176,67.58l-14.1-32.07"/><path class="cls-6" d="M644.25,432.53a340.27,340.27,0,0,0-57-143.66"/><ellipse class="cls-3" cx="477.81" cy="367.03" rx="27.58" ry="92.26" transform="translate(-124.51 382.08) rotate(-38.96)"/><path class="cls-7" d="M535.88,438.72c11.82-9.56-4.57-49.42-36.61-89.05s-67.6-64-79.42-54.43"/><path class="cls-2" d="M456.36,384.37c32,39.62,67.62,64,79.46,54.4L508.08,461.2c-10,8.12-44.14-17.43-76.18-57.05S382,325.83,392.05,317.72l27.74-22.43C408,304.86,424.32,344.75,456.36,384.37Z"/><polyline class="cls-6" points="661.57 644.66 637.85 586.37 632.17 593.18"/><polyline class="cls-6" points="702.16 594.85 690.49 564.83 684.81 571.64"/><circle class="cls-2" cx="644.88" cy="462.3" r="8.57"/><circle class="cls-4" cx="1100.29" cy="574.03" r="12.25" transform="translate(-108.72 293.95) rotate(-14.51)"/><polygon class="cls-2" points="836.84 637.94 836.84 678.72 872.34 655.53 836.84 637.94"/><path class="cls-6" d="M409,178.63,551.2,258.4l-6,8.05q-5.88,7.92-12.28,15.38"/><line class="cls-6" x1="282.29" y1="301.04" x2="251.08" y2="282.72"/><line class="cls-2" x1="1031.06" y1="610.82" x2="1043.57" y2="584.07"/><line class="cls-2" x1="1043.64" y1="619.45" x2="1079.03" y2="590.67"/><path class="cls-3" d="M822.64,688.7s0,0,0,0l-73,48.85c-21.2-4.18-41.6-18.39-54.45-40.29-21.83-37.23-13.55-82.68,18.47-101.74l.33-.2c32.29-18.93,76.23-4,98.14,33.38C823.53,648.11,826.73,669.74,822.64,688.7Z"/><path class="cls-6" d="M714,595.33c32.29-18.93,76.23-4,98.14,33.38,11.38,19.4,14.58,41,10.49,60,0,0,0,0,0,0"/><path class="cls-8" d="M749.66,737.56,736,746.7c-21.72-3.8-42.79-18.15-55.93-40.56-21.91-37.37-13.49-83,18.8-101.94l14.79-8.67c-32,19.06-40.3,64.51-18.47,101.74C708.06,719.17,728.46,733.38,749.66,737.56Z"/><polyline class="cls-1" points="708.51 765.21 726.46 753.19 872.34 655.53"/><path class="cls-2" d="M591.51,565.22c55.88,0,117.6-28.44,140.24-72.66l-24.4-55.3c-18.51,45.55-80.23,75.29-135.85,75.29a146.54,146.54,0,0,1-16.59-.92L533.09,508l23.46,53.35L574,564.25A155.56,155.56,0,0,0,591.51,565.22Z"/></svg>